<mxfile host="app.diagrams.net" modified="2023-10-23T00:08:03.340Z" agent="Mozilla/5.0 (Windows NT 10.0; Win64; x64) AppleWebKit/537.36 (KHTML, like Gecko) Chrome/92.0.4515.131 Safari/537.36 Edg/92.0.902.67" version="22.0.6" etag="-y6HWlEwEN34bbO86mRi" type="github">
  <diagram name="PÃ¡gina-1" id="4Bjp1CXxj2xNpyOOD_h8">
    <mxGraphModel>
      <root>
        <mxCell id="0" />
        <mxCell id="1" parent="0" />
      </root>
    </mxGraphModel>
  </diagram>
</mxfile>
